<svg width="100" height="90" viewBox="0 0 100 90" fill="none" xmlns="http://www.w3.org/2000/svg">
<path d="M87.9038 51.5176C87.1699 72.5698 69.5388 89.04 48.5237 88.3049C27.5085 87.5697 11.0672 69.9076 11.8011 48.8554C12.535 27.8032 30.166 11.333 51.1812 12.0681C72.1964 12.8033 88.6376 30.4654 87.9038 51.5176Z" fill="#49743A"/>
<path d="M9.82917 54.3776L9.09853 54.3995C9.10016 54.3571 9.10209 54.3177 9.10434 54.2813C9.10658 54.2449 9.10615 54.2117 9.10305 54.1819C9.0832 53.9909 9.00204 53.8486 8.85959 53.7548C8.71652 53.6552 8.53477 53.5897 8.31436 53.5584C8.08798 53.5277 7.83629 53.5147 7.55931 53.5195C7.28232 53.5243 7.00595 53.535 6.73021 53.5517L4.96738 53.6542L4.58861 50.0107L9.33278 49.5158L9.42212 50.3752L5.17922 50.8178L5.40845 50.5858L5.66159 53.0207L5.38153 52.8508L6.70388 52.7762C7.12346 52.7506 7.51775 52.7426 7.88673 52.7524C8.25571 52.7621 8.58273 52.8034 8.86778 52.8762C9.15221 52.9431 9.381 53.055 9.55415 53.2118C9.72668 53.3628 9.8269 53.5725 9.85482 53.841C9.86289 53.9186 9.86262 54.0031 9.85403 54.0945C9.85078 54.1793 9.84249 54.2737 9.82917 54.3776Z" fill="white"/>
<path d="M9.77488 46.103C9.76104 46.6128 9.64387 47.0598 9.42336 47.4439C9.20302 47.822 8.90699 48.1141 8.53526 48.32C8.1637 48.52 7.74101 48.6135 7.26718 48.6006C6.79336 48.5877 6.37628 48.4743 6.01596 48.2604C5.65579 48.0405 5.37863 47.7479 5.18447 47.3824C4.98448 47.0109 4.89068 46.5971 4.90305 46.1413C4.91559 45.6795 5.02862 45.2744 5.24215 44.9261C5.45568 44.5778 5.75106 44.3097 6.1283 44.1219C6.49969 43.928 6.9313 43.8377 7.42312 43.8511C7.45911 43.8521 7.50101 43.8562 7.54883 43.8635C7.59681 43.8648 7.64171 43.869 7.68353 43.8762L7.57339 47.9337L6.95262 47.9168L7.05055 44.3091L7.25695 44.6659C6.95123 44.6515 6.67662 44.7071 6.43313 44.8325C6.18963 44.9579 5.99874 45.1358 5.86044 45.3661C5.7163 45.5903 5.64008 45.8553 5.63178 46.1612C5.62364 46.4611 5.68537 46.7298 5.81697 46.9675C5.94257 47.205 6.12653 47.3931 6.36886 47.5317C6.60519 47.6702 6.87929 47.7437 7.19118 47.7522L7.33512 47.7561C7.65301 47.7648 7.93985 47.7006 8.19567 47.5635C8.44565 47.4203 8.64319 47.2186 8.7883 46.9584C8.93342 46.6983 9.01061 46.3973 9.01989 46.0554C9.02754 45.7735 8.98648 45.5173 8.8967 45.2867C8.80709 45.0502 8.66868 44.8424 8.48147 44.6632L9.05221 44.2016C9.29825 44.4244 9.48286 44.6995 9.60601 45.027C9.72934 45.3484 9.78562 45.7071 9.77488 46.103Z" fill="white"/>
<path d="M8.85546 39.5678C8.93227 39.8362 8.98392 40.1095 9.01041 40.3877C9.03198 40.659 9.01952 40.9337 8.97303 41.2119C8.87807 41.78 8.66975 42.2074 8.34808 42.4941C8.02739 42.7749 7.58892 42.8687 7.03269 42.7754L5.50599 42.5193L5.64843 41.6671L7.12187 41.9143C7.45916 41.9709 7.725 41.909 7.9194 41.7287C8.11478 41.5424 8.24214 41.2718 8.30149 40.9167C8.33908 40.6918 8.34807 40.4561 8.32846 40.2094C8.30984 39.9569 8.26657 39.7063 8.19863 39.4576L8.85546 39.5678ZM10.7712 39.953L6.06685 39.1639L6.20928 38.3117L10.9136 39.1008L10.7712 39.953Z" fill="white"/>
<path d="M12.3455 35.4288C12.1952 35.9161 11.9624 36.3151 11.6468 36.6257C11.3331 36.9306 10.9696 37.1321 10.5563 37.2304C10.1447 37.3229 9.71256 37.2991 9.25972 37.159C8.80688 37.0189 8.43568 36.7972 8.14612 36.4941C7.85833 36.1853 7.67001 35.8287 7.58118 35.4244C7.48838 35.0126 7.50915 34.5888 7.64349 34.153C7.77959 33.7116 7.99724 33.3518 8.29642 33.0738C8.5956 32.7959 8.95205 32.6172 9.36577 32.538C9.77553 32.4512 10.2154 32.4806 10.6855 32.626C10.7199 32.6366 10.7591 32.6519 10.8032 32.6718C10.849 32.686 10.8912 32.7022 10.9295 32.7203L9.73372 36.5991L9.14044 36.4155L10.2037 32.9668L10.3066 33.366C10.016 33.2699 9.73667 33.2494 9.4685 33.3046C9.20033 33.3598 8.96872 33.4797 8.77367 33.6643C8.57467 33.8414 8.43009 34.0761 8.33994 34.3685C8.25156 34.6552 8.23882 34.9307 8.30172 35.1951C8.35889 35.4577 8.48554 35.6885 8.68167 35.8873C8.87207 36.0844 9.1163 36.229 9.41437 36.3213L9.55194 36.3638C9.85575 36.4578 10.1492 36.4733 10.4324 36.4101C10.7116 36.3395 10.956 36.1984 11.1656 35.987C11.3753 35.7755 11.5304 35.5063 11.6312 35.1795C11.7143 34.91 11.7435 34.6522 11.719 34.4059C11.6962 34.1539 11.6187 33.9164 11.4866 33.6934L12.1602 33.4025C12.3373 33.6834 12.4412 33.9982 12.4718 34.3468C12.5043 34.6897 12.4621 35.0503 12.3455 35.4288Z" fill="white"/>
<path d="M14.5576 30.765C14.3922 31.1248 14.1885 31.4174 13.9463 31.6426C13.7067 31.8625 13.4301 32.019 13.1165 32.1123C12.7975 32.2031 12.4425 32.2211 12.0516 32.1664C11.6578 32.1038 11.2266 31.9644 10.758 31.7484C10.3874 31.5776 10.0701 31.3916 9.80586 31.1905C9.54167 30.9895 9.3227 30.7762 9.14894 30.5507C8.97768 30.3198 8.84892 30.0755 8.76266 29.8177C8.67889 29.5545 8.63512 29.2832 8.63133 29.004C8.6246 28.7168 8.65514 28.4204 8.72293 28.1147L9.19075 25.9322L9.9708 26.153L9.52532 28.1576C9.49703 28.2767 9.46961 28.4226 9.44307 28.5953C9.41653 28.7681 9.41326 28.9549 9.43326 29.1557C9.44781 29.354 9.50279 29.5577 9.5982 29.7669C9.6936 29.976 9.85057 30.1805 10.0691 30.3804C10.2822 30.5777 10.574 30.7618 10.9445 30.9326C11.0481 30.9803 11.1283 31.0141 11.1853 31.0337C11.2423 31.0534 11.2993 31.0731 11.3563 31.0927C11.4158 31.1069 11.5013 31.1365 11.6128 31.1812L11.1274 31.3539C10.8678 31.1285 10.6701 30.8689 10.5343 30.575C10.3986 30.2812 10.3321 29.9731 10.335 29.6507C10.3349 29.3203 10.4087 28.9943 10.5565 28.6726C10.7419 28.2692 10.9931 27.9523 11.3102 27.7219C11.6299 27.4861 11.9836 27.3486 12.3714 27.3093C12.7592 27.2701 13.1493 27.3409 13.5416 27.5218C13.9394 27.7052 14.2525 27.9651 14.4808 28.3017C14.7063 28.6302 14.83 29.0077 14.852 29.4341C14.8686 29.8579 14.7705 30.3016 14.5576 30.765ZM13.9375 30.3899C14.0652 30.1119 14.118 29.8389 14.0958 29.571C14.0681 29.3006 13.9783 29.0577 13.8264 28.8423C13.669 28.6244 13.4595 28.4551 13.1979 28.3345C12.9364 28.2139 12.6772 28.1672 12.4205 28.1941C12.1638 28.2211 11.9294 28.3146 11.7173 28.4744C11.4997 28.6318 11.3246 28.855 11.1918 29.1439C11.0666 29.4165 11.0111 29.6882 11.0253 29.959C11.0341 30.2274 11.1118 30.468 11.2583 30.6809C11.3994 30.8912 11.6007 31.0567 11.8622 31.1773C12.1238 31.2979 12.3911 31.3485 12.6642 31.329C12.9343 31.3016 13.1808 31.2105 13.4038 31.0556C13.6294 30.8953 13.8072 30.6734 13.9375 30.3899Z" fill="white"/>
<path d="M16.1482 28.1626L12.1209 25.6061L12.5827 24.876L14.2924 25.9613L15.7454 23.6644L14.0356 22.5791L14.4975 21.8489L18.5248 24.4055L18.063 25.1356L16.3761 24.0648L14.9231 26.3617L16.6101 27.4325L16.1482 28.1626Z" fill="white"/>
<path d="M22.9516 19.7454L19.3519 16.6153L19.9176 15.9624L23.5173 19.0925L22.9516 19.7454ZM18.8948 19.6168C19.2962 19.1628 19.7009 18.9064 20.1089 18.8478C20.5209 18.7847 20.9126 18.9145 21.2838 19.2374C21.6733 19.576 21.8604 19.9693 21.8454 20.4174C21.8297 20.8569 21.6094 21.3173 21.1845 21.7986L19.8635 23.3094L16.2638 20.1793L16.8295 19.5263L18.0453 20.5835L18.8948 19.6168ZM20.6474 21.415C20.9034 21.1288 21.0371 20.8554 21.0484 20.5949C21.0597 20.3345 20.9454 20.0999 20.7054 19.8912C20.4699 19.6865 20.2311 19.614 19.9888 19.6736C19.7505 19.7288 19.5014 19.9017 19.2415 20.1925L18.5207 20.9969L19.9334 22.2253L20.6474 21.415Z" fill="white"/>
<path d="M26.6019 17.2228C26.2084 17.5473 25.7946 17.7524 25.3604 17.8383C24.9308 17.9203 24.5165 17.8886 24.1175 17.7432C23.7231 17.594 23.3755 17.3363 23.0745 16.9701C22.7736 16.6038 22.5856 16.2144 22.5106 15.8019C22.4402 15.3855 22.4791 14.9839 22.6273 14.5973C22.7764 14.2022 23.0268 13.8596 23.3786 13.5695C23.735 13.2756 24.1145 13.0949 24.5171 13.0273C24.9198 12.9597 25.3155 13.0066 25.7045 13.1681C26.0942 13.3211 26.4453 13.5877 26.7577 13.9679C26.7805 13.9957 26.8049 14.03 26.8307 14.0709C26.8612 14.108 26.8875 14.1447 26.9095 14.181L23.7781 16.7632L23.3838 16.2834L26.1681 13.9874L26.0344 14.3776C25.8448 14.1374 25.6228 13.9665 25.3686 13.865C25.1144 13.7636 24.8551 13.7363 24.5908 13.7832C24.3273 13.8216 24.0775 13.9381 23.8414 14.1328C23.61 14.3236 23.4478 14.5468 23.3549 14.8023C23.2582 15.0532 23.237 15.3156 23.2914 15.5897C23.3419 15.8591 23.4662 16.1143 23.6643 16.3554L23.7557 16.4666C23.9577 16.7124 24.1941 16.8868 24.4652 16.9899C24.7371 17.0845 25.0187 17.1012 25.31 17.0399C25.6013 16.9785 25.8789 16.8391 26.1427 16.6215C26.3603 16.4421 26.5265 16.2428 26.6415 16.0236C26.761 15.8005 26.827 15.5595 26.8393 15.3005L27.5616 15.4282C27.555 15.7603 27.4686 16.0804 27.3024 16.3885C27.1409 16.6928 26.9074 16.9709 26.6019 17.2228Z" fill="white"/>
<path d="M31.8921 14.0658L29.84 10.3563L30.1378 10.4484L28.4225 11.4006L28.0565 10.7391L31.8648 8.62492L32.2308 9.28648L30.5234 10.2344L30.5954 9.937L32.6475 13.6465L31.8921 14.0658Z" fill="white"/>
<path d="M36.7985 11.9792C36.4349 12.1359 36.066 12.1968 35.6919 12.162C35.321 12.1193 34.9736 11.9717 34.6497 11.7193C34.3314 11.4644 34.0657 11.0889 33.8526 10.5927C33.6395 10.0965 33.5474 9.64615 33.5761 9.24174C33.6104 8.83496 33.7408 8.48476 33.9673 8.19114C34.1993 7.89515 34.5027 7.66643 34.8774 7.50499C35.3071 7.31979 35.7276 7.2497 36.1387 7.2947C36.5497 7.33971 36.9239 7.48882 37.2612 7.74205C37.5961 7.98976 37.8594 8.33691 38.0512 8.7835C38.2429 9.2301 38.3146 9.6631 38.2662 10.0825C38.2177 10.5019 38.0685 10.8766 37.8184 11.2065C37.5682 11.5364 37.2283 11.794 36.7985 11.9792ZM35.1437 14.5347L32.5727 8.54708L33.333 8.21944L33.8409 9.40208L34.2281 10.4407L34.7475 11.4223L35.9371 14.1929L35.1437 14.5347ZM36.4341 11.313C36.7151 11.1919 36.9386 11.0205 37.1045 10.7987C37.276 10.5745 37.3754 10.3194 37.4027 10.0332C37.4331 9.73912 37.382 9.43771 37.2495 9.12896C37.1145 8.81469 36.9324 8.57302 36.7031 8.40395C36.4769 8.22699 36.2237 8.12377 35.9433 8.09431C35.6685 8.06247 35.3905 8.10709 35.1095 8.22818C34.834 8.34689 34.6106 8.51832 34.4391 8.74248C34.2732 8.96426 34.1738 9.21942 34.141 9.50797C34.1113 9.78863 34.164 10.0861 34.2989 10.4004C34.4315 10.7091 34.612 10.9547 34.8406 11.1372C35.0722 11.3118 35.3255 11.415 35.6003 11.4468C35.8807 11.4763 36.1586 11.4317 36.4341 11.313Z" fill="white"/>
<path d="M43.0588 10.2868L42.8037 9.3116L42.7124 9.14017L42.2774 7.47705C42.1848 7.12295 42.009 6.87754 41.75 6.74081C41.4952 6.59675 41.1618 6.57879 40.7498 6.68694C40.4771 6.75853 40.2223 6.87503 39.9854 7.03645C39.747 7.19207 39.5576 7.36895 39.4172 7.5671L38.905 7.03155C39.0929 6.77754 39.3393 6.55778 39.6443 6.37228C39.9535 6.17944 40.2909 6.03505 40.6565 5.93909C41.2891 5.77307 41.8168 5.79895 42.2397 6.01675C42.6625 6.23454 42.9567 6.65981 43.1222 7.29255L43.8509 10.0789L43.0588 10.2868ZM41.5578 10.7366C41.2154 10.8265 40.8985 10.8476 40.607 10.8001C40.3213 10.751 40.0822 10.6432 39.8898 10.4765C39.6959 10.3041 39.5647 10.0873 39.4964 9.82607C39.4311 9.57646 39.4299 9.33484 39.4929 9.1012C39.5616 8.86604 39.7135 8.65248 39.9486 8.46051C40.1894 8.26701 40.5391 8.1101 40.9975 7.98977L42.46 7.60594L42.6171 8.20675L41.1895 8.58145C40.7717 8.69111 40.5084 8.83465 40.3998 9.01204C40.2911 9.18944 40.2626 9.37682 40.3143 9.57419C40.3735 9.80059 40.5112 9.95983 40.7276 10.0519C40.9424 10.1382 41.2094 10.1395 41.5286 10.0557C41.842 9.97346 42.0965 9.83222 42.2922 9.63197C42.4937 9.4302 42.6117 9.1821 42.6463 8.88765L42.962 9.41893C42.9231 9.72071 42.7857 9.98942 42.5496 10.2251C42.3121 10.4549 41.9815 10.6254 41.5578 10.7366Z" fill="white"/>
<path d="M45.6262 10.0876L45.0604 5.35123L47.2586 5.08768C47.8126 5.02126 48.2603 5.07636 48.6017 5.25298C48.9483 5.42294 49.1447 5.70154 49.191 6.08879C49.2372 6.47605 49.1213 6.79513 48.8431 7.04603C48.5701 7.29026 48.1864 7.44202 47.692 7.5013L47.7982 7.25288C48.3642 7.18503 48.7966 7.23893 49.0956 7.4146C49.3945 7.59027 49.5682 7.88067 49.6166 8.28579C49.6657 8.69688 49.5492 9.03716 49.2672 9.30666C48.9905 9.56948 48.5363 9.73874 47.9049 9.81445L45.6262 10.0876ZM46.3872 9.32562L47.7633 9.16064C48.1208 9.11778 48.3824 9.03202 48.5483 8.90336C48.7135 8.76873 48.7815 8.57929 48.7523 8.33502C48.7224 8.08479 48.6173 7.91308 48.437 7.81988C48.2619 7.72001 47.9987 7.69115 47.6472 7.73329L46.2174 7.9047L46.3872 9.32562ZM46.1438 7.28807L47.4305 7.1338C47.7582 7.09452 47.9983 7.0053 48.1509 6.86615C48.3087 6.72032 48.3744 6.53719 48.3481 6.31676C48.321 6.09036 48.2144 5.93092 48.0281 5.83844C47.8477 5.74524 47.5938 5.71828 47.2661 5.75756L45.9794 5.91183L46.1438 7.28807Z" fill="white"/>
<path d="M55.6536 9.93894L55.7095 5.16925L56.5734 5.17942L56.5175 9.94911L55.6536 9.93894ZM53.1257 6.75896C53.7316 6.77209 54.1889 6.91549 54.4977 7.18914C54.8125 7.46286 54.9671 7.84571 54.9613 8.33768C54.9552 8.85364 54.7766 9.25057 54.4253 9.52846C54.0801 9.80041 53.5865 9.92961 52.9447 9.91606L50.9379 9.88344L50.9938 5.11376L51.8578 5.12392L51.8389 6.73482L53.1257 6.75896ZM52.8894 9.25836C53.2733 9.26888 53.5682 9.19435 53.774 9.03476C53.9799 8.87517 54.0847 8.63638 54.0885 8.3184C54.0921 8.00643 53.9928 7.77724 53.7905 7.63085C53.5942 7.48453 53.3011 7.40607 52.9112 7.39548L51.8315 7.36478L51.8095 9.23665L52.8894 9.25836Z" fill="white"/>
<path d="M63.4886 11.9797L61.9732 8.43263L62.7857 8.16176L64.4873 12.215L63.4886 11.9797ZM59.3625 11.0074L60.8026 4.87436L61.6611 5.07665L60.221 11.2097L59.3625 11.0074ZM60.5918 8.44923L60.7729 7.67822L62.7614 8.1468L62.5804 8.91782L60.5918 8.44923ZM62.7493 8.67098L61.9722 8.35841L64.8849 5.83629L65.8222 6.05717L62.7493 8.67098Z" fill="white"/>
<path d="M69.8627 14.7893L71.6407 10.3633L72.4421 10.6863L70.664 15.1124L69.8627 14.7893ZM68.6578 10.9073C69.2176 11.1395 69.5919 11.4392 69.7807 11.8064C69.975 12.1758 69.9804 12.5888 69.797 13.0453C69.6047 13.5241 69.2945 13.8293 68.8667 13.9608C68.4466 14.089 67.9399 14.0303 67.3467 13.7847L65.4886 13.0259L67.2666 8.59986L68.068 8.92293L67.4675 10.4178L68.6578 10.9073ZM67.5332 13.1515C67.8871 13.3007 68.1889 13.3382 68.4385 13.2642C68.688 13.1901 68.8721 13.0056 68.9907 12.7105C69.107 12.421 69.0973 12.1713 68.9618 11.9614C68.8318 11.7538 68.5871 11.5743 68.2276 11.4229L67.2326 11.0023L66.5348 12.7393L67.5332 13.1515Z" fill="white"/>
<path d="M73.4639 17.4615C73.1264 17.2542 72.8641 16.9874 72.6769 16.6612C72.4979 16.333 72.418 15.9635 72.4372 15.5529C72.4615 15.1453 72.6147 14.7113 72.8966 14.2507C73.1785 13.7902 73.4926 13.4551 73.8391 13.2454C74.1906 13.0389 74.5514 12.9437 74.9215 12.9598C75.2966 12.979 75.6581 13.0954 76.0057 13.309C76.4045 13.5539 76.7041 13.8576 76.9043 14.22C77.1046 14.5825 77.1987 14.9747 77.1865 15.3968C77.1775 15.8137 77.0462 16.2294 76.7925 16.6439C76.5387 17.0584 76.2269 17.3668 75.8569 17.569C75.4868 17.7712 75.0952 17.8651 74.6819 17.8506C74.2687 17.8362 73.8627 17.7065 73.4639 17.4615ZM70.4255 17.5807L73.8272 12.0235L74.5328 12.457L73.8609 13.5546L73.237 14.4704L72.7358 15.4616L71.1618 18.033L70.4255 17.5807ZM73.7972 16.7791C74.0579 16.9392 74.3266 17.0233 74.6031 17.0312C74.8848 17.0423 75.1502 16.9765 75.3994 16.8338C75.6567 16.6891 75.8732 16.4735 76.0486 16.187C76.2271 15.8953 76.3192 15.6069 76.325 15.3217C76.3389 15.0345 76.2771 14.7677 76.1395 14.5213C76.0071 14.2779 75.8105 14.0762 75.5497 13.916C75.2941 13.759 75.0254 13.6749 74.7438 13.6639C74.4672 13.6559 74.2018 13.7217 73.9475 13.8613C73.7015 13.9988 73.4892 14.2135 73.3107 14.5051C73.1353 14.7917 73.039 15.0811 73.0219 15.3734C73.0131 15.6637 73.0749 15.9305 73.2074 16.1738C73.3449 16.4203 73.5415 16.622 73.7972 16.7791Z" fill="white"/>
<path d="M76.4075 19.8909L79.4781 16.2411L82.1602 18.5055L81.6736 19.084L79.4934 17.2434L79.7791 17.2254L77.0677 20.4483L76.4075 19.8909Z" fill="white"/>
<path d="M82.4098 25.9043L85.8235 22.573L86.4258 23.1925L83.0122 26.5237L82.4098 25.9043ZM82.8758 21.8654C83.294 22.304 83.5153 22.7295 83.5396 23.1418C83.568 23.5583 83.4062 23.9384 83.0541 24.282C82.6848 24.6423 82.278 24.7962 81.8335 24.7437C81.3976 24.6912 80.958 24.4327 80.5147 23.9683L79.1218 22.523L82.5355 19.1918L83.1379 19.8113L81.985 20.9363L82.8758 21.8654ZM80.9409 23.4643C81.2043 23.7438 81.4651 23.9001 81.7233 23.9332C81.9815 23.9663 82.2243 23.8719 82.4519 23.6498C82.6752 23.4319 82.7673 23.1995 82.7281 22.9527C82.6931 22.7102 82.5418 22.447 82.2742 22.1632L81.5341 21.3763L80.1944 22.6837L80.9409 23.4643Z" fill="white"/>
<path d="M83.8693 28.7104C84.1079 29.0561 84.3686 29.3281 84.6513 29.5265C84.9423 29.7263 85.2311 29.8438 85.5177 29.8788C85.8093 29.9105 86.0735 29.8443 86.3102 29.6803C86.6061 29.4753 86.7535 29.1871 86.7523 28.8157C86.7511 28.4443 86.5988 28.0388 86.2954 27.5993L86.1048 27.6876C86.2821 27.9444 86.4808 28.1425 86.701 28.2819C86.9212 28.4214 87.1437 28.5009 87.3685 28.5203C87.5983 28.5363 87.8069 28.4795 87.9943 28.3496C88.2162 28.1959 88.354 27.9837 88.4077 27.7129C88.4648 27.4471 88.4433 27.1518 88.3431 26.8271C88.2478 26.4989 88.0776 26.1679 87.8326 25.834C87.6709 25.6102 87.4778 25.4045 87.2535 25.2168C87.0376 25.0306 86.7911 24.8583 86.514 24.6998L86.0921 25.2768C86.3422 25.4174 86.5618 25.5718 86.7509 25.7401C86.9434 25.9134 87.1102 26.0971 87.2515 26.2912C87.3912 26.4937 87.49 26.6843 87.5479 26.8632C87.6092 27.0471 87.6269 27.21 87.601 27.352C87.5751 27.494 87.5029 27.606 87.3845 27.688C87.276 27.7632 87.1543 27.7928 87.0193 27.7768C86.8927 27.7623 86.7653 27.7045 86.6373 27.6034C86.5092 27.5024 86.3855 27.3654 86.2662 27.1926L85.8061 26.5259L85.2956 26.8795L85.7864 27.5906C85.9875 27.882 86.095 28.1433 86.1088 28.3746C86.1226 28.6059 86.0383 28.7847 85.8558 28.9111C85.7276 28.9999 85.5835 29.034 85.4235 29.0135C85.2684 28.9895 85.1058 28.9123 84.9357 28.782C84.769 28.6566 84.6072 28.4804 84.4504 28.2532C84.28 28.0063 84.1433 27.7396 84.0404 27.4532C83.9425 27.1634 83.8879 26.8837 83.8768 26.6141L83.1884 26.7733C83.1988 27.0946 83.2616 27.4233 83.377 27.7595C83.5007 28.0971 83.6648 28.4141 83.8693 28.7104Z" fill="white"/>
<path d="M86.3323 33.1594C86.1033 32.7307 85.9909 32.2974 85.9951 31.8595C86.0021 31.4269 86.1159 31.0288 86.3367 30.6654C86.5575 30.3019 86.8768 30.0083 87.2945 29.7843C87.7123 29.5604 88.1333 29.4573 88.5577 29.4749C88.982 29.4926 89.3731 29.6199 89.731 29.857C90.097 30.0965 90.3945 30.4306 90.6235 30.8593C90.827 31.2404 90.9313 31.6202 90.9362 31.9988C90.9493 32.3798 90.8516 32.7318 90.6431 33.0546L89.9608 32.6748C90.0935 32.4267 90.1537 32.1765 90.1415 31.9244C90.1374 31.6747 90.0745 31.4361 89.953 31.2085C89.806 30.9333 89.6137 30.7198 89.3762 30.568C89.1386 30.4162 88.8749 30.3363 88.585 30.3283C88.3003 30.3175 88.0073 30.3929 87.7059 30.5544C87.4045 30.716 87.1766 30.9198 87.0224 31.1659C86.8681 31.4119 86.7882 31.6761 86.7824 31.9583C86.7767 32.2405 86.8474 32.5192 86.9944 32.7944C87.1159 33.022 87.2766 33.2082 87.4764 33.353C87.6843 33.5002 87.9281 33.5874 88.2078 33.6145L88.1525 34.3896C87.774 34.3814 87.4249 34.269 87.1051 34.0523C86.7935 33.8381 86.5359 33.5405 86.3323 33.1594Z" fill="white"/>
<path d="M87.9774 37.1674L91.9243 35.6215L91.7934 35.9048L91.08 34.077L91.7839 33.8013L93.3677 37.8593L92.6638 38.135L91.9537 36.3156L92.2385 36.4264L88.2916 37.9723L87.9774 37.1674Z" fill="white"/>
<path d="M89.5918 42.8819L90.5628 42.6113L90.7328 42.5172L92.3886 42.0557C92.7412 41.9575 92.9839 41.7777 93.1168 41.5164C93.2571 41.2593 93.2703 40.9255 93.1563 40.515C93.0808 40.2433 92.9607 39.9902 92.796 39.7558C92.637 39.5198 92.4575 39.3332 92.2575 39.1958L92.7853 38.675C93.0419 38.8588 93.265 39.1019 93.4548 39.404C93.652 39.7103 93.8011 40.0456 93.9023 40.4098C94.0773 41.04 94.059 41.5683 93.8475 41.9948C93.6359 42.4213 93.2151 42.7223 92.5851 42.8979L89.811 43.6711L89.5918 42.8819ZM89.1207 41.3875C89.026 41.0464 89.0003 40.7297 89.0436 40.4373C89.0885 40.1507 89.1929 39.9098 89.3566 39.7147C89.5262 39.5179 89.741 39.3833 90.001 39.3108C90.2496 39.2416 90.491 39.2366 90.7254 39.2958C90.9614 39.3608 91.177 39.5094 91.3723 39.7415C91.5691 39.9794 91.7309 40.3267 91.8578 40.7835L92.2624 42.2404L91.6642 42.4071L91.2692 40.9849C91.1536 40.5686 91.0064 40.3076 90.8276 40.2017C90.6487 40.0958 90.461 40.0703 90.2645 40.125C90.0391 40.1878 89.882 40.3282 89.793 40.5461C89.7099 40.7623 89.7125 41.0295 89.8008 41.3474C89.8875 41.6596 90.0323 41.912 90.2352 42.1046C90.4398 42.303 90.6894 42.4172 90.9842 42.4471L90.4578 42.7714C90.1556 42.7372 89.8851 42.604 89.6462 42.3716C89.4131 42.1376 89.2379 41.8095 89.1207 41.3875Z" fill="white"/>
<path d="M89.7822 45.2015L94.5065 44.5429L94.6253 45.3987L92.6198 45.6783L92.9938 48.3705L94.9993 48.0909L95.1182 48.9467L90.394 49.6053L90.2751 48.7495L92.2539 48.4736L91.8799 45.7814L89.9011 46.0573L89.7822 45.2015Z" fill="white"/>
<path d="M90.0354 54.2963L91.0433 54.3081L91.2328 54.2653L92.9517 54.2856C93.3176 54.2899 93.6009 54.1852 93.8014 53.9716C94.0079 53.764 94.1136 53.4472 94.1186 53.0212C94.1219 52.7392 94.0771 52.4627 93.9843 52.1916C93.8975 51.9205 93.7772 51.6911 93.6233 51.5033L94.2755 51.1509C94.4706 51.3992 94.6172 51.695 94.7151 52.0382C94.8191 52.3874 94.8688 52.751 94.8644 53.129C94.8567 53.783 94.6918 54.2851 94.3697 54.6353C94.0475 54.9855 93.5595 55.1568 92.9055 55.1491L90.0257 55.1152L90.0354 54.2963ZM89.9997 52.7297C90.0039 52.3757 90.0675 52.0645 90.1907 51.7959C90.3138 51.5333 90.4812 51.3313 90.6928 51.1898C90.9105 51.0483 91.1543 50.9792 91.4243 50.9824C91.6823 50.9854 91.9156 51.0481 92.1241 51.1706C92.3327 51.2991 92.4983 51.502 92.621 51.7795C92.7437 52.063 92.8023 52.4417 92.7967 52.9157L92.779 54.4276L92.158 54.4202L92.1753 52.9443C92.1804 52.5124 92.1118 52.2205 91.9696 52.0689C91.8274 51.9172 91.6543 51.8401 91.4503 51.8377C91.2163 51.835 91.0262 51.9257 90.88 52.11C90.7399 52.2944 90.6679 52.5516 90.664 52.8816C90.6602 53.2055 90.7289 53.4884 90.87 53.73C91.0112 53.9777 91.2191 54.1572 91.4938 54.2684L90.8978 54.4324C90.6172 54.3151 90.3945 54.1115 90.2299 53.8215C90.0713 53.5316 89.9946 53.1677 89.9997 52.7297Z" fill="white"/>
<path d="M24.8292 63.5865C43.1901 58.0602 49.3115 62.513 50.0771 65.4302C43.9975 67.5317 30.4365 70.1051 24.8292 63.5865Z" fill="#5E8E21" stroke="black"/>
<path d="M50.2122 65.4936C31.9162 57.2254 29.1511 44.2491 30.0556 38.7944C36.2576 41.0911 48.9717 49.6463 50.2122 65.4936Z" fill="#D9D9D9" stroke="black"/>
<path d="M39.5738 32.4964C54.0674 47.3196 52.6854 60.6557 50.1827 65.4709C45.1155 60.9249 35.8996 47.9656 39.5738 32.4964Z" fill="#D9D9D9" stroke="black"/>
<path d="M50.562 29.8947C59.6969 49.4279 54.3635 61.4254 50.5549 64.9825C47.1686 58.7514 42.4293 43.0104 50.562 29.8947Z" fill="#D9D9D9" stroke="black"/>
<path d="M61.2403 32.4964C63.9146 54.3836 55.2731 63.5954 50.618 65.4654C49.3212 58.3008 49.63 41.6766 61.2403 32.4964Z" fill="#D9D9D9" stroke="black"/>
<path d="M69.729 38.1587C66.0423 59.8362 55.2406 65.3637 50.3006 65.4178C51.1083 58.1666 56.1247 42.5632 69.729 38.1587Z" fill="#D9D9D9" stroke="black"/>
<path d="M76.8644 64.2222C64.3631 71.6149 53.498 68.0261 49.6282 65.3077C53.4786 62.5986 64.3164 58.5888 76.8644 64.2222Z" fill="#5E8E21" stroke="black"/>
</svg>
