<svg version="1.1" id="Layer_1" xmlns="http://www.w3.org/2000/svg" xmlns:xlink="http://www.w3.org/1999/xlink" x="0px" y="0px"
	 width="100%" viewBox="0 0 512 512" enable-background="new 0 0 512 512" xml:space="preserve">
<path fill="#000000" opacity="1.000000" stroke="none" 
	d="
M513.000000,99.539360 
	C503.745850,138.654556 494.863770,177.403259 485.114929,215.932648 
	C477.864990,244.586060 458.842987,262.814575 429.445465,267.203644 
	C413.259186,269.620300 396.868286,270.648102 380.582825,272.423431 
	C360.184814,274.647003 339.810852,277.094299 319.406494,279.255859 
	C304.918488,280.790649 290.384491,281.889709 275.894257,283.405640 
	C258.454010,285.230194 241.046646,287.367676 223.609558,289.224274 
	C209.619339,290.713867 195.608749,292.015839 181.599823,293.321747 
	C179.663483,293.502258 178.111984,293.789001 177.104279,295.754059 
	C170.514435,308.604553 168.996063,321.244507 178.284332,333.595367 
	C184.825256,342.293030 193.858978,345.637482 204.351151,345.641846 
	C278.330231,345.672607 352.309326,345.657532 426.288391,345.657104 
	C427.454742,345.657104 428.621094,345.650879 429.787415,345.658386 
	C438.830170,345.716614 443.814087,349.922272 444.277466,357.882385 
	C444.692719,365.015564 438.933533,370.657013 430.544220,371.308441 
	C429.549683,371.385651 428.545746,371.352295 427.546143,371.352356 
	C353.233826,371.355988 278.921234,371.468719 204.609360,371.285950 
	C184.720078,371.237030 167.944565,363.750244 156.197769,347.208038 
	C150.583405,339.301697 147.637573,330.295532 146.455322,320.414825 
	C144.884277,307.284760 148.267242,295.455383 153.627243,283.955658 
	C155.199860,280.581635 155.059006,277.873535 153.951477,274.562042 
	C136.006088,220.905594 118.127281,167.226807 100.302170,113.530258 
	C93.930717,94.336823 87.741302,75.082962 81.469872,55.856339 
	C76.518456,40.676579 64.999146,32.346069 48.994347,32.361271 
	C37.664223,32.372036 26.333601,32.310291 15.004171,32.401356 
	C9.524968,32.445396 4.883880,30.929243 1.304778,26.140636 
	C1.000000,21.975456 1.000000,17.950911 1.291852,13.288012 
	C6.012681,7.970704 11.570778,6.403141 17.838491,6.632592 
	C31.450659,7.130911 45.055363,6.218374 58.702057,7.487249 
	C77.372665,9.223249 97.094910,23.577848 103.374176,41.075432 
	C107.015305,51.221668 110.626228,61.372772 113.494400,71.768860 
	C114.385262,74.997887 115.871132,76.712906 119.713173,76.749466 
	C135.666092,76.901268 151.605103,76.572800 167.580215,77.456863 
	C191.145905,78.760979 214.778976,77.156929 238.410294,78.460663 
	C262.805817,79.806557 287.278992,78.116043 311.740143,79.481613 
	C335.637909,80.815742 359.605530,79.476562 383.572113,80.391357 
	C413.640930,81.539078 443.785004,80.363518 473.883911,81.613304 
	C479.869385,81.861839 485.882874,81.857193 491.867584,81.600006 
	C499.719910,81.262558 507.120483,82.010025 513.000000,88.000000 
	C513.000000,91.692909 513.000000,95.385818 513.000000,99.539360 
M462.344421,200.971359 
	C462.982117,198.056793 463.562866,195.128418 464.266357,192.229828 
	C470.718933,165.642014 477.093140,139.034317 483.759857,112.500160 
	C484.854492,108.143425 483.621521,107.259300 479.632477,107.299644 
	C470.329956,107.393723 461.041565,106.980118 451.738098,106.546005 
	C429.307495,105.499352 406.842712,106.867706 384.363922,105.542480 
	C361.293365,104.182381 338.139557,105.888100 314.998657,104.521896 
	C292.593414,103.199127 270.111664,104.889359 247.634583,103.549240 
	C224.731339,102.183716 201.742386,103.929436 178.768326,102.551331 
	C162.497345,101.575333 146.119873,102.350822 129.790192,102.413040 
	C128.070816,102.419586 126.080383,101.727013 124.753250,103.460739 
	C124.187950,105.154396 125.131302,106.512810 125.575851,107.866463 
	C135.406662,137.801071 145.329422,167.705460 155.196945,197.628052 
	C162.419769,219.530716 169.581970,241.453369 176.792816,263.360016 
	C177.451080,265.359802 177.769653,267.863525 180.798538,267.555725 
	C190.837463,266.535675 200.872726,265.478699 210.905182,264.396667 
	C222.251465,263.173004 233.586044,261.837128 244.938904,260.679199 
	C256.122498,259.538513 267.334656,258.673035 278.512634,257.483521 
	C295.949738,255.627884 313.358276,253.501938 330.798370,251.676666 
	C345.286713,250.160309 359.815277,249.028671 374.303955,247.515259 
	C391.897552,245.677475 409.487488,243.774811 427.041016,241.594452 
	C437.349548,240.314026 445.582336,235.129196 452.077454,226.981720 
	C458.003113,219.548538 459.904388,210.624023 462.344421,200.971359 
z"/>
<path fill="#000000" opacity="1.000000" stroke="none" 
	d="
M218.349136,453.950684 
	C218.509750,479.047180 200.009079,501.366791 175.419144,505.965454 
	C149.758560,510.764313 127.327217,500.494385 115.223618,475.983551 
	C106.252007,457.815308 107.728569,438.771149 119.187973,422.070740 
	C141.182465,390.016998 187.819031,390.966705 208.947906,421.663910 
	C215.622589,431.361267 218.712646,441.833069 218.349136,453.950684 
M148.987335,428.449188 
	C140.792740,434.485535 135.389145,442.474884 135.528305,452.711945 
	C135.786240,471.686890 154.983765,485.819489 172.337006,480.022308 
	C186.164749,475.402893 195.329422,460.916138 192.308380,446.614838 
	C188.304733,427.661926 165.972000,418.206360 148.987335,428.449188 
z"/>
<path fill="#000000" opacity="1.000000" stroke="none" 
	d="
M360.142151,406.982117 
	C375.780701,397.717529 392.082520,395.496521 408.724121,401.798401 
	C427.956421,409.081268 439.816833,423.046661 443.435272,443.701813 
	C446.666473,462.146332 441.133240,477.964844 428.567413,491.082642 
	C419.908905,500.121490 408.870392,505.210876 396.017456,506.533203 
	C382.527466,507.921112 370.281830,505.085022 359.260559,497.549835 
	C342.325439,485.971405 333.212891,465.633026 336.356720,444.435272 
	C338.740356,428.363312 347.474640,416.741882 360.142151,406.982117 
M376.914368,427.455841 
	C373.074005,429.494568 369.827972,432.054626 367.178833,435.686676 
	C359.650421,446.008423 359.244598,459.145142 366.830414,469.469147 
	C373.205383,478.145264 386.953094,484.012115 398.132385,480.070496 
	C413.779266,474.553650 422.833221,457.582947 416.945862,442.790497 
	C410.603394,426.854614 393.068909,419.887543 376.914368,427.455841 
z"/>
</svg>